<?xml version="1.0" encoding="utf-8"?>
<!-- Generator: Adobe Illustrator 16.0.3, SVG Export Plug-In . SVG Version: 6.00 Build 0)  -->
<!DOCTYPE svg PUBLIC "-//W3C//DTD SVG 1.1//EN" "http://www.w3.org/Graphics/SVG/1.1/DTD/svg11.dtd">
<svg version="1.1" id="Capa_1" xmlns="http://www.w3.org/2000/svg" xmlns:xlink="http://www.w3.org/1999/xlink" x="0px" y="0px"
	 width="841.89px" height="595.28px" viewBox="0 0 841.89 595.28" enable-background="new 0 0 841.89 595.28" xml:space="preserve">
<g id="Guìas" display="none">
	<rect x="420.774" display="inline" fill="#D4CD13" width="1" height="595.28"/>
	<line display="inline" fill="none" stroke="#D4CD13" stroke-miterlimit="10" x1="841.89" y1="296.91" x2="0" y2="296.91"/>
	<line display="inline" fill="none" stroke="#D4CD13" stroke-miterlimit="10" x1="841.89" y1="317.554" x2="0" y2="317.554"/>
	<line display="inline" fill="none" stroke="#D4CD13" stroke-miterlimit="10" x1="841.89" y1="276.267" x2="0" y2="276.267"/>
	<line display="inline" fill="none" stroke="#D4CD13" stroke-miterlimit="10" x1="841.89" y1="296.91" x2="0" y2="296.91"/>
	<line display="inline" fill="none" stroke="#D4CD13" stroke-miterlimit="10" x1="841.89" y1="255.819" x2="0" y2="255.819"/>
	<line display="inline" fill="none" stroke="#D4CD13" stroke-miterlimit="10" x1="841.89" y1="276.463" x2="0" y2="276.463"/>
	<line display="inline" fill="none" stroke="#D4CD13" stroke-miterlimit="10" x1="841.89" y1="235.176" x2="0" y2="235.176"/>
	<line display="inline" fill="none" stroke="#D4CD13" stroke-miterlimit="10" x1="841.89" y1="255.819" x2="0" y2="255.819"/>
	<line display="inline" fill="none" stroke="#D4CD13" stroke-miterlimit="10" x1="841.89" y1="338.197" x2="0" y2="338.197"/>
	<line display="inline" fill="none" stroke="#D4CD13" stroke-miterlimit="10" x1="841.89" y1="317.554" x2="0" y2="317.554"/>
	<line display="inline" fill="none" stroke="#D4CD13" stroke-miterlimit="10" x1="841.89" y1="358.841" x2="0" y2="358.841"/>
	<line display="inline" fill="none" stroke="#D4CD13" stroke-miterlimit="10" x1="841.89" y1="338.197" x2="0" y2="338.197"/>
	<line display="inline" fill="none" stroke="#D4CD13" stroke-miterlimit="10" x1="219.101" y1="0" x2="219.101" y2="595.28"/>
	<line display="inline" fill="none" stroke="#D4CD13" stroke-miterlimit="10" x1="623.447" y1="0" x2="623.447" y2="595.28"/>
	<rect x="219.417" y="2.5" display="inline" fill="#D4CD13" width="201.528" height="1"/>
	<rect x="421.616" y="2.5" display="inline" fill="#D4CD13" width="201.502" height="1"/>
	<line display="inline" fill="none" stroke="#D4CD13" stroke-miterlimit="10" x1="320.188" y1="2.5" x2="320.188" y2="594.78"/>
	<line display="inline" fill="none" stroke="#D4CD13" stroke-miterlimit="10" x1="268.667" y1="2.5" x2="268.667" y2="594.78"/>
	<line display="inline" fill="none" stroke="#D4CD13" stroke-miterlimit="10" x1="573.246" y1="2.5" x2="573.246" y2="594.78"/>
	<line display="inline" fill="none" stroke="#D4CD13" stroke-miterlimit="10" x1="522.367" y1="2.5" x2="522.367" y2="594.78"/>
</g>
<image overflow="visible" width="374" height="177" xlink:href="D5A19B2B.jpg"  transform="matrix(1 0 0 1 -7771 -7893.7197)">
</image>
<g>
	<g id="Muertos">
		<path fill="#16212B" d="M175.183,80.364c4.122,0,6.252,2.132,6.252,6.253v86.98c0,4.121-2.131,6.252-6.252,6.252h-21.746
			c-4.119,0-6.253-2.132-6.253-6.252v-40.08l-7.531,13.501c-1.707,2.845-4.122,4.265-7.393,4.265h-15.774
			c-3.269,0-5.826-1.42-7.391-4.265l-7.39-13.358v39.937c0,4.121-2.132,6.252-6.253,6.252H73.85c-4.121,0-6.255-2.132-6.255-6.252
			v-86.98c0-4.121,2.134-6.253,6.255-6.253h22.883c3.267,0,5.825,1.422,7.389,4.406l20.465,36.952l20.75-36.952
			c1.563-2.984,4.123-4.406,7.39-4.406H175.183z"/>
		<path fill="#16212B" d="M198.333,142.471V86.617c0-4.121,2.132-6.253,6.252-6.253h21.604c4.12,0,6.253,2.132,6.253,6.253v55.143
			c0,10.66,3.125,15.633,10.515,15.633c7.535,0,10.945-4.974,10.945-15.633V86.617c0-4.121,2.13-6.253,6.253-6.253h21.603
			c4.122,0,6.252,2.132,6.252,6.253v55.854c0,28.426-19.187,39.084-44.91,39.084C218.515,181.555,198.333,170.897,198.333,142.471z"
			/>
		<path fill="#16212B" d="M305.056,86.617c0-4.121,2.134-6.253,6.254-6.253h67.081c4.123,0,6.253,2.132,6.253,6.253v11.371
			c0,4.122-2.13,6.252-6.253,6.252h-39.226v13.502h33.543c4.121,0,6.252,2.131,6.252,6.252v11.37c0,4.121-2.132,6.253-6.252,6.253
			h-33.543v14.353h40.505c4.122,0,6.253,2.135,6.253,6.255v11.371c0,4.121-2.131,6.252-6.253,6.252h-68.36
			c-4.12,0-6.254-2.132-6.254-6.252V86.617z"/>
		<path fill="#16212B" d="M485.821,116.747c0,10.803-5.539,19.329-14.78,24.446l19.764,31.125c2.695,4.405,0.845,7.532-4.123,7.532
			h-22.318c-3.267,0-5.687-1.422-7.391-4.266l-16.911-28.28h-7.25v26.293c0,4.121-2.126,6.252-6.248,6.252h-21.607
			c-4.119,0-6.253-2.132-6.253-6.252v-86.98c0-4.121,2.134-6.253,6.253-6.253h39.084c12.505,0,22.601,2.7,30.277,8.243
			c7.667,5.401,11.504,12.791,11.504,22.315V116.747z M451.857,111.631c0-4.548-3.552-7.391-9.378-7.391h-9.668v19.329h9.668
			c5.826,0,9.378-2.985,9.378-7.534V111.631z"/>
		<path fill="#16212B" d="M521.777,104.24h-22.743c-4.123,0-6.259-2.131-6.259-6.252V86.617c0-4.121,2.136-6.253,6.259-6.253h79.589
			c4.121,0,6.256,2.132,6.256,6.253v11.371c0,4.122-2.135,6.252-6.256,6.252h-22.737v69.357c0,4.121-2.135,6.252-6.258,6.252
			h-21.601c-4.124,0-6.25-2.132-6.25-6.252V104.24z"/>
		<path fill="#16212B" d="M584.87,142.615v-25.016c0-22.739,13.924-38.941,46.328-38.941c32.409,0,46.193,16.202,46.193,38.941
			v25.016c0,22.881-13.784,38.94-46.193,38.94C598.794,181.555,584.87,165.636,584.87,142.615z M618.978,139.771
			c0,12.649,3.126,17.909,12.079,17.909c9.095,0,12.229-4.975,12.229-17.909v-19.327c0-12.935-3.134-17.909-12.229-17.909
			c-8.953,0-12.079,5.401-12.079,17.909V139.771z"/>
		<path fill="#16212B" d="M711.063,134.087c-15.917-6.823-21.887-14.072-21.887-27.289c0-18.192,15.914-28.141,41.639-28.141
			c12.229,0,24.736,3.269,37.527,9.949c3.551,1.85,4.399,5.117,2.269,8.671l-5.964,9.948c-1.991,3.411-4.839,4.122-8.673,2.132
			c-9.099-4.976-17.624-7.532-25.723-7.532c-4.55,0-6.97,2.273-6.97,5.257c0,2.844,2.277,5.117,6.688,6.964l23.592,9.948
			c16.059,6.823,22.734,15.065,22.734,28.283c0,18.619-15.627,29.276-43.49,29.276c-14.064,0-27.991-3.695-41.497-11.084
			c-3.552-1.848-4.552-5.116-2.417-8.528l5.684-10.233c1.991-3.552,4.83-4.405,8.669-2.273c10.801,5.969,20.609,8.953,29.278,8.953
			c6.256,0,9.668-2.558,9.668-6.68c0-2.986-2.278-5.258-7.536-7.533L711.063,134.087z"/>
	</g>
	<g id="de_hambre">
		<g>
			<g>
				<path fill="#16212B" d="M214.808,400.877c-14.951,16.964-35.254-5.176-44.78-16.313c-5.391-7.055-8.015-10.701-13.106-18.235
					c-1.985-2.938-1.91-5.24,0.18-6.692c14.694-10.209,29.386-20.419,44.081-30.626c2.089-1.451,3.983-0.945,5.594,1.438
					c4.573,6.767,6.939,10.029,11.809,16.319c9.539,11.793,19.019,29.55,6.577,42.822
					C221.021,394.104,218.95,396.362,214.808,400.877z M207.433,372.615c5.192-4.774,5.602-8.926,0.347-15.678
					c-0.45-0.578-0.675-0.87-1.123-1.452c-8.187,6.849-16.375,13.695-24.563,20.543c0.499,0.649,0.749,0.974,1.251,1.618
					c5.369,6.899,10.267,7.678,15.394,2.963C202.216,377.411,203.955,375.813,207.433,372.615z"/>
				<path fill="#16212B" d="M244.451,381.436c1.677-1.95,3.532-1.999,5.467-0.189c10.512,9.431,21.205,18.384,32.912,26.319
					c2.103,1.425,2.529,3.302,1.229,5.553c-1.435,2.484-2.154,3.728-3.589,6.212c-1.3,2.251-3.132,2.665-5.353,1.16
					c-8.454-5.728-12.597-8.816-20.675-15.447c-1.992,2.738-2.989,4.104-4.98,6.843c7.113,5.84,10.749,8.593,18.148,13.752
					c2.274,1.586,2.774,3.53,1.445,5.763c-1.466,2.464-2.198,3.695-3.664,6.159c-1.329,2.233-3.264,2.557-5.655,0.89
					c-7.78-5.425-11.603-8.314-19.082-14.455c-2.118,2.911-3.177,4.366-5.295,7.277c7.653,6.284,15.603,12.208,23.817,17.738
					c2.479,1.668,3.104,3.669,1.81,5.925c-1.428,2.489-2.143,3.732-3.571,6.222c-1.295,2.257-3.32,2.552-5.916,0.804
					c-14.579-10.191-28.188-21.069-41.387-32.994c-2.386-2.231-2.737-4.427-1.059-6.378
					C220.853,408.871,232.649,395.151,244.451,381.436z"/>
				<path fill="#16212B" d="M308.043,427.097c1.072-2.384,2.764-3.026,4.98-1.931c4.645,2.296,6.987,3.38,11.705,5.416
					c2.25,0.972,2.959,2.725,2.065,5.191c-2.49,6.873-3.734,10.308-6.225,17.181c4.619,1.912,6.944,2.812,11.618,4.496
					c2.201-6.984,3.301-10.476,5.502-17.46c0.79-2.507,2.378-3.37,4.672-2.582c4.778,1.642,7.182,2.396,12.01,3.781
					c2.318,0.665,3.208,2.313,2.602,4.877c-4.266,18.041-8.536,36.082-12.804,54.123c-0.607,2.565-2.405,3.501-5.263,2.681
					c-5.953-1.708-8.917-2.644-14.808-4.668c-2.828-0.972-3.875-2.802-3.084-5.31c2.638-8.368,3.957-12.552,6.594-20.919
					c-4.916-1.771-7.36-2.717-12.219-4.728c-2.983,8.234-4.475,12.351-7.458,20.585c-0.894,2.468-2.801,3.155-5.576,1.958
					c-5.817-2.511-8.706-3.844-14.433-6.674c-2.733-1.351-3.581-3.315-2.508-5.701C292.956,460.641,300.499,443.869,308.043,427.097
					z"/>
				<path fill="#16212B" d="M396.398,449.311c1.88,0.192,3.283,1.14,4.236,2.867c3.101,5.311,4.733,7.941,8.155,13.145
					c3.017,4.527,5.129,8.554,6.261,11.992c1.141,3.467,1.79,7.972,1.719,13.535c-0.099,7.809-0.148,11.713-0.247,19.521
					c-0.033,2.646-1.567,4.002-4.498,3.915c-6.105-0.181-9.157-0.351-15.251-0.848c-2.926-0.238-4.324-1.756-4.102-4.392
					c0.368-4.361,0.552-6.544,0.92-10.905c-5.896-0.57-8.839-0.933-14.711-1.813c-0.568,4.337-0.852,6.506-1.419,10.843
					c-0.343,2.621-2.026,3.757-4.934,3.276c-6.094-1.008-9.134-1.59-15.189-2.918c-2.888-0.633-4.104-2.328-3.573-4.913
					c1.566-7.627,2.352-11.443,3.918-19.07c1.116-5.435,2.652-9.647,4.479-12.775s4.771-6.472,8.687-10.141
					c4.49-4.221,6.659-6.38,10.849-10.789c1.298-1.449,2.87-2.031,4.662-1.771C390.369,448.651,392.377,448.899,396.398,449.311z
					 M389.181,468.676c-1.052,1.192-1.583,1.786-2.655,2.968c-2.262,2.458-4.034,5.604-5.2,9.576
					c5.228,0.774,7.848,1.097,13.097,1.613c-0.481-4.079-1.534-7.572-3.203-10.607C390.395,470.811,389.986,470.098,389.181,468.676
					z"/>
				<path fill="#16212B" d="M486.924,441.26c2.318-0.662,3.863,0.286,4.535,2.832c4.729,17.91,9.462,35.818,14.189,53.729
					c0.673,2.547-0.45,4.316-3.309,5.134c-6.033,1.725-9.065,2.504-15.151,3.904c-2.884,0.663-4.63-0.365-5.116-2.96
					c-1.892-10.09-2.837-15.136-4.727-25.226c-1.29,3.813-1.962,5.717-3.365,9.515c-0.817,2.014-2.281,3.222-4.459,3.607
					c-4.203,0.744-6.312,1.076-10.531,1.658c-2.186,0.302-4.003-0.394-5.23-2.082c-2.32-3.173-3.455-4.772-5.671-7.992
					c0.909,10.208,1.364,15.312,2.274,25.52c0.235,2.635-1.155,4.159-4.08,4.413c-6.133,0.532-9.203,0.718-15.348,0.93
					c-2.932,0.101-4.474-1.247-4.519-3.894c-0.316-18.607-0.633-37.215-0.943-55.822c-0.045-2.646,1.16-4.031,3.538-4.113
					c5.279-0.182,7.917-0.346,13.185-0.818c1.881-0.169,3.427,0.585,4.515,2.394c5.644,8.93,8.667,13.319,15.102,21.894
					c3.916-10.21,5.661-15.354,8.729-25.667c0.554-2.068,1.836-3.271,3.691-3.694C479.331,443.355,481.871,442.704,486.924,441.26z"
					/>
				<path fill="#16212B" d="M552.605,433.429c2.011,3.921-1.218,12.885-1.218,12.885c0.382,0.619,11.794,1.51,14.591,6.841
					c0.301,0.573,0.451,0.858,0.752,1.432c7.886,14.315-6.944,26.037-18.684,31.215c-8.815,4.137-17.825,7.858-26.994,11.138
					c-2.821,1.009-4.677,0.196-5.429-2.325c-5.289-17.729-10.572-35.46-15.858-53.189c-0.751-2.521,0.048-4.226,2.336-5.044
					c8.424-3.014,12.593-4.719,20.815-8.533c9.472-4.862,23.393-7.616,28.993,4.223
					C552.189,432.613,552.326,432.885,552.605,433.429z M534.576,443.275c-0.85-1.993-2.939-2.765-5.783-1.443
					c-2.373,1.103-3.567,1.637-5.958,2.677c1.377,3.616,2.067,5.426,3.444,9.042c2.133-0.928,3.197-1.404,5.316-2.38
					c3.28-1.511,4.572-4.161,3.581-6.485C534.936,444.121,534.816,443.84,534.576,443.275z M544.694,463.503
					c-1.18-2.733-4-2.91-8.646-0.774c-2.138,0.982-3.212,1.461-5.363,2.396c1.558,4.089,2.337,6.136,3.895,10.225
					c2.593-1.127,3.886-1.709,6.46-2.903c4.623-2.145,5.695-4.221,4.301-7.451C545.083,464.398,544.952,464.1,544.694,463.503z"/>
				<path fill="#16212B" d="M610.139,394.927c4.414,5.093,5.063,11.929,2.067,18.949c9.165,2.184,13.86,3.094,23.438,4.512
					c3.336,0.555,3.612,3.051,0.77,5.817c-5.1,4.964-7.69,7.361-12.956,11.983c-1.929,1.693-3.911,2.218-5.989,1.649
					c-8.26-2.272-12.305-3.553-20.21-6.371c-1.656,1.295-2.487,1.933-4.157,3.194c3.669,5.498,5.503,8.25,9.173,13.747
					c1.438,2.155,0.877,4.267-1.672,6.134c-5.344,3.915-8.05,5.793-13.52,9.388c-2.61,1.715-4.63,1.396-5.901-0.875
					c-8.936-15.976-17.875-31.948-26.817-47.92c-1.271-2.271-0.825-4.14,1.291-5.531c8.025-5.275,11.963-8.125,19.643-14.25
					c6.145-4.9,12.003-7.763,17.848-8.51c5.8-0.741,10.72,0.849,14.612,5.339C608.709,393.281,609.187,393.828,610.139,394.927z
					 M590.718,408.057c-1.687-2.299-4.561-2.209-7.589,0.188c-2.009,1.59-3.021,2.371-5.053,3.906
					c2.697,4.042,4.046,6.063,6.743,10.104c2.12-1.602,3.175-2.416,5.271-4.074c3.158-2.5,3.947-5.601,2.26-7.899
					C591.696,409.391,591.371,408.947,590.718,408.057z"/>
				<path fill="#16212B" d="M605.943,372.524c-1.762-1.865-1.705-3.832,0.137-5.823c10.121-11.4,19.357-23.084,28.177-35.52
					c1.614-2.374,3.51-2.875,5.595-1.416c2.301,1.609,3.454,2.414,5.755,4.023c2.085,1.459,2.297,3.54,0.593,6.047
					c-5.314,7.814-10.956,15.406-16.927,22.732c2.498,2.229,3.747,3.345,6.244,5.574c6.202-7.61,9.206-11.587,14.995-19.878
					c1.779-2.548,3.747-3.123,5.81-1.633c2.276,1.645,3.414,2.466,5.69,4.11c2.063,1.49,2.183,3.678,0.313,6.356
					c-6.086,8.718-9.246,12.898-15.768,20.9c2.655,2.37,3.983,3.554,6.639,5.924c6.771-8.583,13.196-17.252,19.457-26.214
					c1.895-2.804,3.934-3.535,6.022-2.084c2.305,1.602,3.456,2.402,5.761,4.004c2.089,1.451,2.165,3.756,0.181,6.692
					c-10.974,15.686-22.6,30.438-35.358,44.709c-2.271,2.455-4.374,2.723-6.137,0.856
					C630.729,398.765,618.338,385.644,605.943,372.524z"/>
			</g>
		</g>
	</g>
	<g id="epn">
		<path fill="#10161D" d="M217.606,281.995c0.168-0.81,0.671-1.228,1.479-1.228h13.167c0.809,0,1.145,0.418,0.977,1.228
			l-0.446,2.231c-0.141,0.81-0.642,1.228-1.451,1.228h-7.699l-0.53,2.65h6.583c0.81,0,1.145,0.419,1.006,1.227l-0.448,2.232
			c-0.139,0.81-0.641,1.227-1.45,1.227h-6.584l-0.557,2.817h7.95c0.81,0,1.144,0.419,1.005,1.227l-0.448,2.232
			c-0.139,0.809-0.64,1.228-1.45,1.228h-13.417c-0.81,0-1.143-0.419-1.004-1.228L217.606,281.995z"/>
		<path fill="#10161D" d="M251.44,288.188c-0.364,1.869-1.424,3.348-3.125,4.408c-1.702,1.06-3.766,1.589-6.249,1.589h-2.204
			l-0.947,4.882c-0.14,0.809-0.643,1.228-1.451,1.228h-4.242c-0.808,0-1.143-0.419-1.003-1.228l3.318-17.071
			c0.169-0.81,0.672-1.228,1.48-1.228h7.669c2.455,0,4.324,0.53,5.607,1.619c1.313,1.06,1.786,2.51,1.422,4.379L251.44,288.188z
			 M244.995,286.904c0.141-0.892-0.418-1.45-1.561-1.45h-1.869l-0.781,4.072h1.869c1.143,0,1.924-0.584,2.119-1.478L244.995,286.904
			z"/>
		<path fill="#10161D" d="M252.217,300.294c-0.81,0-1.145-0.419-1.004-1.228l3.319-17.071c0.167-0.81,0.669-1.228,1.479-1.228h4.49
			c0.671,0,1.09,0.308,1.256,0.894l2.203,7.42l1.367-7.086c0.167-0.81,0.669-1.228,1.478-1.228h4.241
			c0.807,0,1.143,0.418,0.976,1.228l-3.32,17.071c-0.139,0.809-0.642,1.228-1.45,1.228h-4.548c-0.667,0-1.086-0.308-1.282-0.893
			l-2.148-7.393l-1.368,7.058c-0.137,0.809-0.64,1.228-1.45,1.228H252.217z"/>
	</g>
	<g id="iconos">
		<g>
			<path fill="#151B58" d="M451.569,232.099c-1.316,0-2.612,0.082-3.892,0.219c-6.622-7.897-16.547-12.934-27.634-12.934
				s-21.014,5.037-27.634,12.934c-1.28-0.137-2.577-0.219-3.892-0.219c-8.498,0-16.306,2.972-22.476,7.908l8.064,5.412
				c3.746-2.375,8.101-3.875,12.787-4.156c0.542-0.033,1.077-0.083,1.625-0.083c2.761,0,5.426,0.421,7.938,1.196
				c1.575-2.832,3.648-5.345,6.096-7.436c4.716-4.028,10.818-6.475,17.492-6.475s12.775,2.447,17.491,6.475
				c2.447,2.091,4.521,4.604,6.096,7.436c2.513-0.775,5.177-1.196,7.939-1.196c0.548,0,1.085,0.05,1.624,0.083
				c14.122,0.848,25.36,12.571,25.36,26.902c0,12.518-8.581,23.042-20.161,26.077h-4.953v0.814v9.082v24.231h-11.375v9.084h11.375
				v14.53h-66.79v-14.53h46.634v-9.084H386.65v-24.231v-9.082v-0.814h-4.956c-11.581-3.034-20.161-13.559-20.161-26.077
				c0-6.199,2.109-11.907,5.64-16.461l-7.532-5.056c-4.495,6.015-7.19,13.448-7.19,21.517c0,15.259,9.541,28.303,22.958,33.564
				v59.337h89.269v-23.612v-9.084v-26.641c13.417-5.261,22.957-18.305,22.957-33.564
				C487.635,248.279,471.456,232.099,451.569,232.099z"/>
		</g>
		<g>
			<path fill="#151B58" d="M318.833,231.499c-6.054,0-11.469,3.463-15.509,9.155l7.564,5.077c2.389-3.273,5.229-5.15,7.945-5.15
				c6.479,0,13.699,10.568,13.699,25.733s-7.22,25.734-13.699,25.734c-6.481,0-13.699-10.569-13.699-25.734
				c0-4.586,0.667-8.741,1.768-12.322l-7.811-5.241c-1.927,5.132-3.041,11.106-3.041,17.563c0,17.098,7.677,30.948,18.166,34.128
				v61.236h9.082v-61.2c10.566-3.093,18.317-16.984,18.317-34.164C341.615,246.791,331.609,231.499,318.833,231.499z"/>
		</g>
		<g>
			<path fill="#151B58" d="M535.24,281.438h-9.458v-50.548c0-2.508-2.033-4.542-4.542-4.542s-4.542,2.034-4.542,4.542v50.548h-9.081
				v-41.467c0-2.509-2.033-4.542-4.541-4.542c-2.509,0-4.542,2.033-4.542,4.542v45.189c0,0,5.761,5.399,5.891,5.359h12.273v70.547
				h9.084V290.52h12.65c0.159,0.05,5.891-5.251,5.891-5.251v-11.285l-9.083-6.096V281.438z"/>
			<path fill="#151B58" d="M544.323,239.971c0-2.509-2.031-4.542-4.54-4.542s-4.543,2.033-4.543,4.542v16.98l9.083,6.096V239.971z"
				/>
		</g>
	</g>
	<g>
		<path d="M566.962,283.039c0.155-0.742,0.615-1.126,1.358-1.126h12.08c0.743,0,1.05,0.384,0.896,1.126l-0.41,2.047
			c-0.128,0.743-0.588,1.126-1.331,1.126h-7.064l-0.563,2.943h6.194c0.743,0,1.05,0.384,0.897,1.126l-0.386,2.022
			c-0.153,0.742-0.613,1.125-1.356,1.125h-6.194l-1.023,5.273c-0.128,0.743-0.588,1.127-1.331,1.127h-3.89
			c-0.743,0-1.05-0.384-0.922-1.127L566.962,283.039z"/>
		<path d="M580.964,293.124l0.896-4.505c0.818-4.3,4.095-7.014,9.701-7.014c5.86-0.025,7.756,2.918,6.963,7.014l-0.897,4.505
			c-0.793,4.146-3.787,7.013-9.676,7.013C582.143,300.137,580.195,297.244,580.964,293.124z M587.21,292.611
			c-0.41,2.278-0.052,3.226,1.562,3.226c1.639,0,2.38-0.896,2.814-3.226l0.691-3.48c0.487-2.253,0.077-3.226-1.586-3.226
			c-1.613,0-2.382,0.972-2.79,3.226L587.21,292.611z"/>
		<path d="M599.779,293.124l0.896-4.505c0.818-4.3,4.095-7.014,9.7-7.014c5.861-0.025,7.756,2.918,6.963,7.014l-0.896,4.505
			c-0.793,4.146-3.788,7.013-9.676,7.013C600.957,300.137,599.011,297.244,599.779,293.124z M606.025,292.611
			c-0.41,2.278-0.052,3.226,1.562,3.226c1.638,0,2.38-0.896,2.814-3.226l0.691-3.48c0.486-2.253,0.077-3.226-1.587-3.226
			c-1.612,0-2.381,0.972-2.789,3.226L606.025,292.611z"/>
		<path d="M634.487,293.072c-0.741,3.839-3.89,6.758-11.032,6.758h-4.76c-0.743,0-1.05-0.384-0.922-1.127l3.045-15.665
			c0.155-0.742,0.615-1.126,1.356-1.126h5.275c6.91,0.026,8.65,2.918,7.882,6.732L634.487,293.072z M629.113,289.156
			c0.383-2.047-0.153-2.943-2.304-2.943h-0.462l-1.816,9.317h0.46c2.021,0,3.047-0.921,3.457-2.943L629.113,289.156z"/>
	</g>
</g>
</svg>
